# Blender v2.79 (sub 0) OBJ File: 'TankFloor.blend'
# www.blender.org
mtllib TankFloor.mtl
o lowerlevelFloor_Cube
v -77.658241 -5.640397 -82.293877
v -77.658241 -5.640423 77.706123
v 82.341759 -5.640423 77.706123
v 82.341759 -5.640397 -82.293877
v -77.658241 0.759606 -82.293877
v -77.658241 0.759580 77.706123
v 82.341759 0.759606 -82.293877
v 82.341759 0.759580 77.706123
vt -10.671667 -13.835575
vt -10.671667 14.835575
vt -11.070707 15.347626
vt -11.070707 -14.347626
vt 11.671669 14.835575
vt 12.070707 15.347626
vt 11.671669 -13.835575
vt 12.070707 -14.347626
vn 1.0000 0.0000 0.0000
vn 0.0000 0.0000 1.0000
vn -1.0000 0.0000 0.0000
vn 0.0000 0.0000 -1.0000
vn 0.0000 1.0000 0.0000
usemtl clearsides
s 1
f 2/1/1 1/2/1 5/3/1 6/4/1
f 1/2/2 4/5/2 7/6/2 5/3/2
f 4/5/3 3/7/3 8/8/3 7/6/3
f 3/7/4 2/1/4 6/4/4 8/8/4
usemtl avatar
f 1/2/5 2/1/5 3/7/5 4/5/5
